<svg xmlns="http://www.w3.org/2000/svg" width="61" height="61" viewBox="0 0 61 61">
    <defs>
        <linearGradient id="a" x1="-.155%" x2="100.076%" y1="49.979%" y2="49.979%">
            <stop offset="0%" stop-color="#6660E9"/>
            <stop offset="53.31%" stop-color="#0CA1EE"/>
            <stop offset="100%" stop-color="#73F3E9"/>
        </linearGradient>
        <linearGradient id="b" x1="10.751%" x2="67.365%" y1="50.017%" y2="50.017%">
            <stop offset="0%" stop-color="#6660E9"/>
            <stop offset="53.31%" stop-color="#0CA1EE"/>
            <stop offset="100%" stop-color="#73F3E9"/>
        </linearGradient>
        <linearGradient id="c" x1="93.184%" x2="8.479%" y1="12.495%" y2="102.072%">
            <stop offset="0%" stop-color="#6660E9"/>
            <stop offset="53.31%" stop-color="#0CA1EE"/>
            <stop offset="100%" stop-color="#73F3E9"/>
        </linearGradient>
    </defs>
    <g fill="none" fill-rule="nonzero">
        <path stroke="#C9CACA" stroke-width=".25" d="M50.4 60.7h-40c-5.5 0-10-4.5-10-10v-40c0-5.5 4.5-10 10-10h40c5.5 0 10 4.5 10 10v40c0 5.6-4.4 10-10 10z"/>
        <path fill="url(#a)" d="M23.8 44.7h22.1L35.1 25.2z"/>
        <path fill="url(#b)" d="M27.4 48.3l10.4-18.2-2.7-4.9-13.4 23.1z"/>
        <path fill="url(#c)" d="M36.3 20l-3.8-6.9L15 44.7h7z"/>
    </g>
</svg>
