<svg xmlns="http://www.w3.org/2000/svg" width="61" height="61" viewBox="0 0 61 61">
    <g fill="none" fill-rule="nonzero">
        <path fill="#0C1144" d="M50.4 60.4h-40c-5.5 0-10-4.5-10-10v-40c0-5.5 4.5-10 10-10h40c5.5 0 10 4.5 10 10v40c0 5.5-4.4 10-10 10z"/>
        <path fill="#000" d="M33.867 39.3V46h1.6v-3.1h.3V46h1.7v-6.7h-1.7v2.5h-.3v-2.5z"/>
        <path fill="#FDEE21" d="M37.567 46.2h-1.9v-3.1h-.2v3.1h-1.8v-6.9h1.8v2.5h.2v-2.5h1.9v6.9zm-1.6-.2h1.5v-6.6h-1.5v2.5h-.5v-2.5h-1.5V46h1.5v-3.1h.5V46z"/>
        <path fill="#000" d="M39.567 39.3h-1.6V46h1.6z"/>
        <path fill="#FDEE21" d="M39.667 46.2h-1.8v-6.9h1.8v6.9zm-1.6-.2h1.4v-6.6h-1.4V46z"/>
        <g>
            <path fill="#000" d="M39.867 39.3l1.3 6.7h1.9l1.3-6.7h-1.7l-.4 2.9c0 .1-.2.1-.2 0l-.4-2.9h-1.8z"/>
            <path fill="#FDEE21" d="M43.067 46.2h-2.1l-1.3-6.9h1.9l.4 3 .4-3h2.1l-1.4 6.9zm-1.9-.2h1.8l1.2-6.6h-1.5l-.4 2.8c0 .1-.1.1-.2.1s-.1-.1-.2-.2l-.4-2.8h-1.6l1.3 6.7z"/>
        </g>
        <g>
            <path fill="#000" d="M47.867 39.3h-3.2V46h3.2v-1.8h-1.8v-.8h.8v-1.6h-.8v-.7h1.8z"/>
            <path fill="#FDEE21" d="M47.967 46.2h-3.4v-6.9h3.4v1.9h-1.8v.5h.8v1.9h-.8v.6h1.8v2zm-3.2-.2h3v-1.6h-1.8v-.9h.8v-1.6h-.8V41h1.8v-1.6h-3V46z"/>
        </g>
        <g fill="#FDEE21">
            <path d="M30.567 18.9c-.3-.7-9.6-4.3-9.7-4-1.7.4-2.4 2.4-3.6 3.7l-2.6-.1c-1.1 1.5-1.7 3-1.3 4.5 1.5 2 3.2 3.7 4.2 6.2.1 1.2 5.1.1 6.2-.1-1.5 1.1-2.7 2.7-2.2 7.4.5 2.2.8 4.7 5.3 7.2.6.3 1.8.7 2.5 1 .7.3 1.6.5 3.9-.3 1.4-.6 2.8-.9 4.2-1.5l-1.6.1c-2.2 0-3.9.2-4.5-.4l-2-3.5 1.2-2.3c1.6.2 2.2 1.5 3.6 2l1.7-1.3c5 2.9 6.9-1.9 7.5-5.6-.1-1.5-3.3.5-3.1-.2.1-1.6-1.3-3.8-2.1-5.4l1-3.9c.5-.4-2.1-4.7-4.2-5.2-1.7-.6-4.4 1.7-4.4 1.7z"/>
        </g>
        <g>
            <g fill="#C8C037">
                <path d="M38.767 27c0 .4 0 .9.1 1.2 0 .2-.2.2-.3.3l1 .4c.2.3.3.6.5 1 .2.8 0 .8-.1.9-.4 0-.7 0-1-.1.1.1.2.1.2.2 0 .2-.1.4-.3.7.3.2.8.3 1.2.5l.4-1c-.3-1.5-.9-2.8-1.7-4.1zM40.567 31.9c.5.2 1.3.2 2.3-.4.2-.1.3 0 0 .1-1.4 1.3-2 .7-2.3.3z"/>
                <path d="M42.967 31.4c.2.3.1.6 0 .8-.2 1.3-.6 2.3-1.4 3.4-2.6 4.2-5.2 1.6-7.3-.1l-.9 2.2c0 .2-.2.3 1.1.9l1.4-1c5.3 4 9-5.6 7.1-6.2zM34.867 35.1c-.4 0-1.4.4-1.5.6l.5-.7 1 .1zM34.167 30.7c.1 0 .4.1.3.1 0 0 0 .4.1.7l-.4.8c.7-.8 1.9-.8 3-.9l-.5-.3c.1-.3 0-.5-.1-.8l-2.4.4zM35.967 28.2c-.8.2-1.5.6-2 1.5.4-1.4.5-1.3.6-1.4.5-.3.9-.1 1.4-.1z"/>
            </g>
            <g fill="#FCF6A0">
                <path d="M31.767 44.3c-.9 1-3.1-.1-4.8-.7-4.5-2.8-5.3-5.5-5.4-8.1-.2-3.8.9-5.9 2.4-6.4-1 1.9-1.4 5.2-1 7.7.4 1.4.4 3.7 2.7 5 1.1.6.8 1.1 1.6 1.7.8.6 3.2 1.2 4.5.8zM33.167 27c-1.6-2.3-3.9-3.1-6.4-3.2.5-.2 1-.3 1.5-.5.1-.1.1-.4 0-.6-2.4-.6-4-1.4-6-2.2l5.3 1.3c3.7.1 3.4 1 5.6 5.2z"/>
                <path d="M34.867 25.9c-1.2-1.7-2.3-3.7-3.9-5.1-3.8-1.7-7.5-3-11.9-4.1l1.4-1.8c4.6 1.1 9 2.8 12.9 5.7.7 1.7 1.2 3.4 1.5 5.3zM37.267 22.9s-.7-1.5-1-2.1c-.8-.8-1.1-2.4-2.7-3.1.5.1.8 0 1.8.9l1.6 3 .3 1.3z"/>
                <path d="M38.167 25.5c.2-1.3.4-3.4.1-4.2-.9-1.2-1.9-2.5-2.8-3.7-.2-.1-.3-.3-.4-.5 1.3.3 2.7 1.3 4.5 4.9l-1.4 3.5z"/>
            </g>
            <g fill="#000">
                <path d="M32.567 25.6c-.5-.4-1-1.9-1.8-2.2-.7-.1-1-.3-2-.1.4-.2.7-.4 1.1-.5.3-.1.5 0 .7 0 .1 0 .1-.1.1-.1-1-.6-3-.6-4.3-1 1.6.1 3.3 0 4.5.3.9 1 1.2 2.6 1.7 3.6zM35.467 18.6c.2 0 1.4 1.9 1.4 2.2.1.7.3 1.4.4 2.1-.2-.7-.4-1.3-.7-2-.1-.2-.3-.6-.8-1.2-.2-.4-.2-.8-.3-1.1zM39.467 28.7h-.5l.5.1zM35.967 28.2c-.5-.1-1-.1-1.5 0-.2.3-.2.6-.3.8.6-.7.9-.7 1.8-.8zM42.867 31.6c-.3.2-.3.4-1.1.7-.6.1-.9-.1-1.2-.4.4.1.5.4 1.7.1l.6-.4zM40.367 31.8c-.2.6-.4 1.1-.6 1.6-.5.6-.3.3-1.1 1.2.2-.4.6-.8.7-1.2.1-.3.3-.5.3-.8-.2-.1-.6-.1-.7-.1-.7.4-.8.8-1.2 1.3.3-.5.5-1 .9-1.4 0-.1.3-.1.4-.1-.2 0-.7-.1-.7-.1-.5.1-.7.5-1 .8.2-.4.5-.7.8-1 0 0 .9 0 1.3.2v.2l.2.1.2-.5.5-.2zM34.867 35.1c-.1 0-1.1-.2-1.1-.1-.4.3-.4.5-.4.8.6-.7.6-.7 1.5-.7zM34.167 30.7s.7-.1.7 0c-.1.2.1.8.1.8l-.4.3c.8-.4 1.7-.3 2.6-.4 0 0-.8-.2-.7-.2.2 0 0-.8-.1-.8.1 0 .3-.1.4-.1-1.1-.4-1.7-.2-2.6.4z"/>
                <path d="M40.267 31.2l-.2.1c0-.5-.5-.4-.9-.4l-.3-.1c.1.1.4.1.3.3-.1.1-.2.3-.2.5h-.2c.3.1.6.2 1 .4h.2l.5-.3-.2-.5z"/>
            </g>
            <g fill="#FFF">
                <path d="M35.567 30.9c-.1-.2-.5-.1-.6 0-.1.1 0 .6.1.5.1-.1.3-.2.5-.2v-.3zM39.467 31.7s.1-.3.1-.4c-.1-.2-.4-.1-.4-.1-.1.1-.2.3-.1.4-.1.1.3.1.4.1z"/>
            </g>
            <g fill="#000">
                <path d="M23.367 40.9h.2c1.4.7 3.7 1.7 7.1 1.2l.5.8c-1.5.7-3.1.6-4.5.6l-3.3-2.6zM21.367 35.5l.7 2.9c1.9 1.2 5.1 2.5 7.8 2.4l-.6-1.4c-5.6-1.1-6-2.6-7.9-3.9zM23.167 29.4c.3 2.3.8 4 2.8 5.5 1.2.9 2.4 1.7 3.9 2.5 0 0-.1.7-.2.7-4.4-.5-7.6-4.1-8-5.8.3-1.3.9-2.1 1.5-2.9zM25.267 28.1c.6 2.5 2 5.1 3.4 7.4.5.6.6.9 1.4 1.3 1.1.3 1.8.2 2.6.2l-.6-1.2c-1.7-1.4-.9-2.6-.5-3.4-1-.2-2.2-.8-2.4-1.4-.3-2.2-.1-2.9.1-4-1.3.4-2.6.7-4 1.1z"/>
                <path d="M20.467 14.7c-.4.3-.8.7-1.3 1.1-.7.8-1.2 1.5-2 2-.1.1-.6.3-1.1.4-.2 0-.4.1-.9 0-.4-.2-.8-.1-1.2.4-.4.6-.9 1.7-1.1 2.4-.4 1.8.7 3.3 1.8 4.4 1 .9 1.5 1.5 1.9 2.4.3.6.5 1.3.8 1.9.1.2.1.2.3.2.5.1 1.2.1 1.8.2h1l1.5-.3c.5-.1.9-.3 1.2-.4 0 .2-.4.3-.5.5-1.3 1.8-1.6 3.4-1.4 5.9.1 1.1.4 2.1.8 3.1.2.5.6 1.3.9 1.8 1.1 1.5 3.5 3.5 6.8 4.2.6.1 1.3 0 1.9-.1 1.7-.5 5-1.7 5-1.7s-3 .2-4.4.1c-.3 0-.7-.1-.9-.3 0 0-.2-.3-.1-.3s.5-.1 1-.2c-1.1-.1-1.1-.1-1.2-.3-.1-.3-.3-.8-.5-1.1.5 0 1.6.1 2-.3 0 0-.6.1-1.2 0-.2 0-.5-.1-.6-.2-.3-.1-.5-.1-.5-.2-.1-.2-.1-.3-.3-.6-.1-.4-.2-.9-.2-1.3.4.5.9.8 1.5 1 0 0 .8.4 1.4.2h-.4c-1.2-.5-1.4-1-1.6-1.2l-.5-.8c.2-.3.2-.3.5-.3.6.1.9.1 1.3 0 .3.5.3 1.1.9 1.5 2 .6 2.4-.2 2.9-.8 1.4 1 3.7 1.4 5.3 0 2-2.4 2.7-6.1 2.5-6.3-.3-.4-.6-.9-.9-.8-1 .3-1.4.8-2.4.7h.3c.1-.9 0-1.3 0-1.3-.3-.7-.7-1.4-1-1.9-.1-.1-.3-1-.6-1.3-.2-.1-.5-.5-.5-.5v.4s.1 0 .2.2c.2.9 1.3 2.9 1.4 3 .4.6 0 1.4.3 1.8 0 .1.6 0 1 0 .7-.2.7-.5 1.3-.5.4 0 .5.8.5.8-.1.9-.3 1.9-.7 2.8-.8 1.6-1.8 3.1-3.1 3.3-1.6.3-2.5-.4-3.3-.9l-.3.3c-1.1 1.1-2.5 1-3.1-.4-.3-.6-.6-.9-.9-1.4l-1.6 1.2c-.1.3-.3.7-.5 1.2-.1.3-.3.9-.3 1.4-.2.4.7 1.8 1.3 2.7.2.3.5.7.5.7.1.3.4.6.4.6 1.1 1.4-1.4 1.1-1.9 1-1-.2-2-.6-2.9-1.1-.1 0-.1-.1-.2-.1-1.1-.7-2.1-1.6-3-2.5-.5-.6-1-1.8-1.4-2.6-.5-2-1.3-5.6.8-8.2.1-.2.3-.4.4-.5.6-.4 1.3-.7 2-.9l-.1-.5c-.4.1-1.6.5-1.9.7-.8.2-1.4.5-2.5.7h-1c-.7-.1-2 0-2-.1-.5-.7-.6-1.9-1.1-2.6-.3-.4-.6-.6-.9-.9-1.1-1.1-2-2.1-2.3-3.2-.1-.3-.2-.7-.1-1.6.3-.9.7-1.6 1.4-2.4.7 0 1.5 0 2.1.1.3 0 .8.1 1.4.3 1.4.5 3.3 1.4 3.3 1.4-1.4-.8-3-1.8-4-2-.1 0-.2-.1-.3-.2 1.5-.9 1.8-1.9 2.8-2.9.5-.2.6-.3 1-.3 3.6.6 5.8 2 7.6 2.9.7.4 1.4.7 2 1 .5.2 2.2 1.4 2.7 2.1.5 1 .8 2.2 1.2 3.2.2 1.1.4 1.5.4 1.5s-.2-.9-.2-1.1c.2.1.7.2.9.2 0 0-.9-.5-1-.9-.4-1.3-.8-3.4-.9-3.5-.3-.4-1.5-1.3-2.2-1.7-.3-.2-.4-.3-.4-.3.2-.2.5-.6.8-.8.3-.2.5-.4.8-.5 1.5-.7 2.4.3 2.6.1 0 0-.3-.4-.2-.3.2.1.6.2.7.2.6.4 2 2 2.9 3.7.2.4.3.7.2 1.2-.1.5-.2.8-.3 1.1-.1.2-.6 1.7-.6 2-.1.8.4 1.9.4 1.9v-1-.1c0-.3.1-.5.1-.6.2-1.1.5-1.9.8-2.8.1-.2.2-.4.2-.6 0-.3-.3-.8-.5-1.2-.2-.4-.5-.9-.8-1.4-.8-1.1-1.4-2-2.6-2.5-.3-.1-1.6-.3-2.1-.2-.5.1-1 .2-1.4.5-.6.4-1.1 1-1.6 1.3-1.2-.6-1.8-1.1-1.9-1.1-.7-.4-1.6-.8-2.5-1.3-.5-.5-3.2-1.5-5.8-1.7zm15.5 22.5c-.7-.6-1.4-1.2-1.8-1.8-.1.7-.6 1.2-1 1.8-.1.1-.1.3.2.8.1.1.5.2.7.1-.2-.2-.6-.4-.7-.6.4.3.8.4 1.2.3.1 0 .2-.1.3-.2.2-.4.3-.4.4-.5l.3.4.4-.3z"/>
                <path d="M30.567 44.8h-.6c-.8-.2-1.6-.4-2.3-.8-.7-.3-1.3-.7-1.9-1.1-1.1-.7-2-1.6-2.6-2.4-.4-.5-.7-1.3-.9-1.8-.4-1.2-.7-2.1-.8-3.1-.1-.7-.1-1.2-.1-1.7s.1-1 .2-1.5c.2-.9.6-1.8 1.2-2.7l.3-.3c.1-.1.2-.2.2-.3-.4.2-.8.3-1.2.4-.4.1-.9.2-1.3.3H18.967c-.4 0-.9 0-1.2-.1-.2 0-.2-.1-.3-.2-.1-.2-.2-.5-.3-.7-.1-.4-.3-.8-.5-1.1-.2-.4-.4-.8-.7-1.2-.3-.4-.7-.7-1.2-1.2-.3-.3-.6-.6-.8-.9-.3-.4-.5-.7-.7-1-.2-.4-.3-.8-.4-1.2-.1-.4 0-.9.1-1.3.1-.3.3-.8.5-1.2.2-.5.4-.9.6-1.2.2-.2.4-.4.6-.4.2-.1.4 0 .6.1H16.167c.5 0 .9-.2 1.1-.4.5-.4.9-.8 1.3-1.3.2-.3.4-.5.7-.8.5-.5.9-.9 1.3-1.1 1.5.1 2.9.5 3.7.7 1 .3 1.9.7 2.1.9 1 .5 1.9.9 2.5 1.3 0 0 .1 0 .1.1.2.2.8.6 1.8 1 .3-.2.5-.4.8-.6.3-.2.5-.5.8-.7.4-.2.9-.4 1.4-.5.5-.1 1.8.1 2.1.2 1.2.5 1.8 1.4 2.6 2.5.4.5.6 1 .8 1.4.1.1.1.2.2.3.2.3.3.6.3.9 0 .1 0 .2-.1.3 0 .1-.1.1-.1.2s-.1.2-.1.2c-.3.9-.6 1.6-.7 2.6v.2c0 .1-.1.3-.1.4v.1s.4.3.5.5c.3.2.4.8.6 1.1 0 .1.1.2.1.2.1.1.1.3.2.4.2.5.5 1 .8 1.5 0 0 0 .1.1.4v1h-.2-.1c.6.1 1-.1 1.5-.3.3-.1.6-.3.9-.4h.1c.2 0 .5.3.8.8.1.1 0 1.1-.4 2.3-.2.7-.5 1.4-.8 2-.4.7-.8 1.4-1.3 1.9-.4.3-.8.6-1.3.7-.4.1-.9.2-1.4.2-.5 0-.9-.1-1.4-.3l-1.2-.6s0 .1-.1.1c-.5.6-.9 1.3-2.8.8-.4-.3-.6-.7-.8-1.1-.1-.1-.1-.3-.2-.4-.3.1-.6 0-1 0h-.4c-.1 0-.1.1-.2.3l.5.8.1.1c.1.1.2.3.4.5.3.2.6.4 1 .6.1.1.5 0 .5 0h-.1c-.2.1-.5.1-.8 0-.2 0-.5-.1-.6-.2h-.1c-.3-.1-.6-.2-.8-.4l-.6-.6v.1c0 .4 0 .8.2 1.1.1.2.1.3.2.4 0 .1.1.1.1.2 0 0 .1.1.2.1s.2.1.3.1c.1 0 .4.2.6.2.6.1 1.2 0 1.2 0-.2.2-.5.3-.9.3h-1c.2.3.4.8.5 1.1.1.2.1.2 1.2.3-.3 0-.6.1-.8.1h-.2c0 .1.1.3.1.3.2.2.5.2.7.3h.1c1.4.1 4.3-.1 4.4-.1 0 0-3.4 1.2-5 1.7-.7.5-1.1.6-1.5.6zm-7.2-15.6c0 .1-.1.2-.3.3l-.3.3c-.6.9-1 1.8-1.2 2.7-.1.5-.2 1-.2 1.5s0 1.1.1 1.7c.1 1 .3 1.9.8 3.1.2.5.6 1.3.9 1.8.6.8 1.5 1.7 2.6 2.4.6.4 1.3.8 1.9 1.1.7.3 1.5.6 2.3.8.6.1 1.3 0 1.9-.1 1.6-.5 4.8-1.6 5-1.7-.1 0-.8.1-1.7.1-.8 0-2 .1-2.7 0h-.1c-.3 0-.6-.1-.7-.3l-.1-.3h.2c.2 0 .4-.1.8-.1-1.1-.1-1.1-.1-1.2-.3-.1-.4-.3-.8-.5-1.1h1c.5 0 .8-.1.9-.3-.1 0-.7.1-1.2 0-.2 0-.5-.1-.6-.2-.1 0-.2-.1-.3-.1-.1 0-.2-.1-.2-.1 0-.1-.1-.2-.1-.2 0-.1-.1-.2-.2-.4-.1-.4-.2-.7-.2-1.1v-.1c.2.2.4.5.6.6.3.2.5.3.8.4h.1c.1 0 .3.1.6.2s.6 0 .8 0h.1-.5c-.4-.2-.8-.4-1-.6-.2-.2-.3-.3-.4-.5l-.1-.1-.5-.8c.2-.3.2-.3.5-.3h.2c.5.1.7.1 1 0 .1.1.1.3.2.4.2.4.3.8.7 1.1 1.9.6 2.4-.1 2.8-.8 0 0 0-.1.1-.1.4.3.8.5 1.2.6.5.2.9.3 1.4.3.5 0 1 0 1.4-.2.5-.1.9-.4 1.3-.7.5-.5.9-1.2 1.3-1.9.3-.6.6-1.3.8-2 .2-.6.3-1.1.4-1.6.1-.4.1-.7 0-.7-.3-.6-.6-.9-.9-.8-.4.1-.7.2-.9.4-.5.2-.8.4-1.5.3H40.767v-1c0-.2 0-.3-.1-.4-.2-.5-.5-1-.8-1.5-.1-.2-.2-.3-.2-.4 0 0 0-.1-.1-.2-.1-.3-.3-.8-.6-1.1-.1-.1-.5-.4-.5-.5v.4s.1 0 .2.2c.2.9 1.3 2.9 1.4 3 .2.3.2.7.2 1 0 .3 0 .6.1.8h1c.3-.1.5-.2.7-.3.2-.1.3-.2.6-.2.1 0 .2 0 .2.1.2.2.2.7.2.7 0 .4-.1.9-.2 1.4-.1.5-.3 1-.5 1.4-.8 1.6-1.8 3.1-3.1 3.3-.6.1-1.2.1-1.7-.1-.5-.1-.9-.4-1.2-.6-.1-.1-.3-.2-.4-.2l-.3.3c-.3.3-.6.5-.9.6-.3.1-.6.2-.9.1-.3-.1-.5-.2-.7-.4-.2-.2-.4-.5-.5-.8-.2-.4-.4-.6-.6-.9-.1-.2-.3-.3-.4-.5l-1.6 1.2c-.1.2-.2.5-.3.8-.1.1-.1.3-.2.4-.1.3-.3.9-.3 1.4-.1.2 0 .5.4 1.1.3.5.7 1.1 1 1.5.1.1.2.3.3.4.1.2.2.3.2.3.1.2.3.4.3.5v.1c.3.3.3.6.2.8-.1.1-.2.2-.4.2s-.4.1-.6.1c-.5 0-.9-.1-1.1-.1-.9-.1-1.9-.5-2.9-1.1-.1 0-.1-.1-.2-.1-1-.6-2-1.4-3-2.5-.2-.2-.4-.6-.7-1.1-.2-.4-.4-.9-.6-1.3 0-.1 0-.1-.1-.2-.1-.5-.3-1.1-.4-1.8-.1-.8-.2-1.4-.2-2.1 0-.8.1-1.6.3-2.2.1-.4.3-.7.4-1.1.2-.4.4-.7.7-1 0-.1.1-.1.1-.2l.3-.3c.3-.2.6-.4 1-.5.3-.1.7-.3 1.1-.3l-.1-.5c-.4.1-1.6.5-1.9.7-.3.1-.5.2-.8.2-.5.2-1 .3-1.7.5h-1c-.4-.1-.9-.1-1.4-.1h-.7c-.3-.4-.4-.9-.6-1.3-.1-.5-.3-.9-.5-1.2-.2-.3-.5-.6-.7-.8l-.1-.1c-.5-.5-1-1-1.4-1.6-.4-.6-.7-1.1-.8-1.6v-.2c-.1-.3-.2-.6-.1-1.4.3-.9.7-1.6 1.4-2.4.8 0 1.5 0 2.1.1h.1c.3 0 .8.1 1.3.3 1.3.5 3 1.2 3.3 1.4-.3-.2-.6-.3-.9-.5-.6-.3-1.1-.6-1.6-.9-.6-.3-1-.5-1.4-.5-.1 0-.2-.1-.3-.2.4-.2.8-.5 1.1-.9.3-.3.5-.6.7-.9.3-.4.5-.7.9-1.1.1 0 .1-.1.2-.1.3-.1.5-.2.8-.3 1.4.2 2.7.6 4 1.1 1.1.5 2.1 1 2.9 1.4.2.1.4.2.7.4.3.2.6.3.9.5.4.2.7.4 1.1.6.3.1.8.4 1.4.9.6.5 1.1.9 1.3 1.2.5 1.1.9 2.2 1.2 3.2.2 1 .4 1.4.4 1.5 0-.1-.2-.9-.2-1.1.2.1.7.2.9.2 0 0-.2-.1-.5-.3-.1-.1-.3-.2-.3-.3-.1-.1-.2-.2-.2-.3-.2-.7-.4-1.5-.5-2.2-.2-.7-.3-1.2-.3-1.3-.1-.2-.5-.5-.9-.8-.5-.4-.9-.7-1.3-.9-.3-.2-.4-.3-.4-.3l.1-.1.6-.6.1-.1c.2-.2.4-.3.7-.4.2-.1.5-.2.7-.2h.6c.4 0 .7.2.9.2.2.1.3.1.4.1l-.2-.3c.1 0 .2.1.4.1.1 0 .3.1.3.1.2.2.7.7 1.3 1.4.4.5 1.1 1.4 1.6 2.3.2.4.3.7.2 1.2-.1.5-.2.8-.3 1.1-.1.2-.6 1.7-.6 2 0 .2 0 .7.1 1.3l.2.6v-.3-.8-.1c0-.2 0-.3.1-.4v-.2c.2-1 .4-1.7.7-2.6 0-.1.1-.2.1-.2 0-.1.1-.2.1-.2.1-.1.1-.2.1-.3 0-.2-.2-.6-.3-.9-.1-.1-.1-.2-.2-.3-.2-.4-.4-.9-.8-1.4-.8-1.1-1.4-2-2.6-2.5-.3-.1-1.6-.3-2.1-.2-.5.1-1 .2-1.4.5-.3.2-.6.4-.8.7-.3.2-.5.5-.8.6-1-.5-1.5-.9-1.8-1-.1 0-.1-.1-.1-.1-.6-.3-1.5-.8-2.5-1.3-.2-.2-1.1-.6-2.1-.9-.7-.2-2.1-.6-3.7-.7-.4.3-.8.6-1.3 1.1-.3.3-.5.5-.7.8-.4.5-.8.9-1.3 1.3-.2.1-.6.3-1.1.4H15.167c-.2-.1-.4-.1-.6-.1-.2.1-.4.2-.6.4-.2.3-.4.7-.6 1.2-.2.4-.4.9-.5 1.2-.1.4-.1.9-.1 1.3.1.4.2.8.4 1.2.2.3.4.7.7 1 .2.3.5.6.8.9l1.2 1.2c.3.4.6.7.7 1.2.2.3.3.7.5 1.1.1.3.2.5.3.7.1.1.1.1.3.2.3.1.8.1 1.2.1h1.8c.4-.1.9-.2 1.3-.3.6-.5 1-.7 1.4-.8zm1.9-1.1l.1.5c-.4.1-.7.2-1.1.3-.3.1-.7.3-1 .5-.1 0-.2.2-.3.3 0 .1-.1.1-.1.2-.3.3-.5.7-.7 1-.2.3-.3.7-.4 1.1-.2.7-.3 1.4-.3 2.2 0 .7.1 1.4.2 2.1.1.7.3 1.3.4 1.8 0 .1 0 .1.1.2.2.4.4.9.6 1.3.3.5.5.9.7 1.1 1 1 2 1.8 3 2.5.1 0 .1.1.2.1 1 .6 2 1 2.9 1.1.1 0 .6.1 1.1.1.3 0 .5 0 .6-.1.2-.1.3-.1.4-.2.1-.2 0-.5-.2-.8v-.1c-.1-.1-.3-.3-.3-.5 0 0-.1-.1-.2-.3-.1-.1-.2-.3-.3-.4-.3-.4-.7-1-1-1.5-.2-.3-.3-.5-.3-.7-.1-.2-.1-.4 0-.4 0-.5.1-1.1.3-1.4.1-.2.1-.3.2-.4.1-.3.2-.6.3-.8l1.6-1.2c.1.2.2.4.4.5.2.3.4.5.6.9.1.3.3.6.5.8.2.2.4.3.7.4.3.1.6 0 .9-.1.3-.1.6-.3.9-.6l-.3-.4c-.1.1-.2.2-.4.5-.1.1-.2.2-.3.2-.4.1-.8-.1-1.2-.3 0 .1.3.3.4.4.1.1.2.1.2.2-.3 0-.6 0-.7-.1-.4-.5-.3-.7-.2-.8.1-.1.1-.2.2-.3.3-.4.7-.9.8-1.5.4.6 1 1.2 1.8 1.8.1.1.3.2.4.2l1.2.6c.5.2 1.1.2 1.7.1 1.3-.2 2.3-1.7 3.1-3.3.2-.5.4-.9.5-1.4.1-.5.2-.9.2-1.4 0 0 0-.5-.2-.7-.1-.1-.1-.1-.2-.1-.3 0-.5.1-.6.2-.2.1-.3.2-.7.3h-1c-.1-.2-.1-.5-.1-.8 0-.3 0-.7-.2-1-.1-.1-1.2-2.1-1.4-3-.1-.2-.2-.2-.2-.2v.7l-.2-.6c-.1-.3-.2-.8-.1-1.3 0-.1.2-.7.3-1 .1-.4.3-.9.4-1 .1-.3.2-.6.3-1.1.1-.5 0-.8-.2-1.2-.5-.9-1.1-1.8-1.6-2.3-.6-.7-1.1-1.2-1.3-1.4 0 0-.2-.1-.3-.1-.2 0-.3-.1-.4-.1 0 0 .2.2.2.3-.1.1-.2 0-.4-.1s-.5-.2-.9-.2h-.6c-.2 0-.5.1-.7.2-.3.1-.5.3-.7.4l-.1.1-.6.6c0 .1-.1.1-.1.1 0 .1.2.2.4.3.3.2.8.5 1.3.9s.8.7 1 .8c.1.1.2.6.3 1.3.2.7.3 1.6.5 2.2 0 .1.2.3.6.6.2.2.5.3.5.3-.2 0-.7-.1-.9-.2 0 .2.2 1.1.2 1.1s-.2-.5-.4-1.5c-.3-1-.7-2.2-1.2-3.2-.2-.3-.7-.8-1.3-1.2-.6-.4-1.1-.8-1.4-.9-.3-.2-.7-.4-1.1-.6-.3-.2-.6-.3-.9-.5-.2-.1-.4-.2-.7-.4-.8-.5-1.8-1-2.9-1.4-1.3-.5-2.6-.9-4-1.1-.3 0-.5.1-.8.3-.1 0-.1.1-.2.1-.4.3-.6.7-.9 1.1-.2.3-.5.6-.7.9-.3.3-.7.6-1.1.9 0 .1.1.2.3.2.3.1.8.2 1.4.5.5.3 1.1.6 1.6.9.3.2.7.4 1 .5 0 0-1.9-.9-3.3-1.4-.5-.2-1-.3-1.3-.3h-.1c-.6-.1-1.3-.1-2.1-.1-.7.7-1.1 1.4-1.4 2.3-.1.8 0 1.1.1 1.4v.2c.1.5.4 1 .8 1.6.4.6 1 1.1 1.4 1.6l.1.1c.3.3.5.5.7.8.2.3.4.8.5 1.2.2.5.3 1 .6 1.3h.7c.4 0 1 0 1.4.1h1c.7-.2 1.2-.3 1.7-.5.3-.1.5-.2.8-.2.2-.1.5-.2 1-.4 0-.1.4-.3.5-.3zm8.9 7.3c-.1.6-.5 1.1-.8 1.5-.1.1-.1.2-.2.3-.1.1-.1.3.2.8.1.1.4.2.7.1-.1-.1-.2-.1-.2-.2-.2-.1-.4-.3-.5-.4.4.3.8.4 1.2.3.1 0 .2-.1.3-.2.2-.3.3-.4.4-.5l.3.4.3-.3c-.7-.6-1.3-1.2-1.7-1.8z"/>
            </g>
        </g>
    </g>
</svg>
