<svg xmlns="http://www.w3.org/2000/svg" width="61" height="61" viewBox="0 0 61 61">
    <g fill="none" fill-rule="nonzero">
        <path fill="#0C1144" d="M50.1 60.8h-40c-5.5 0-10-4.5-10-10v-40c0-5.5 4.5-10 10-10h40c5.5 0 10 4.5 10 10v40c0 5.5-4.5 10-10 10z"/>
        <path fill="#5BA3C9" d="M12.6 32.4c.1.2.1.3 0 .5v-.5z"/>
        <path fill="#60A6CB" d="M12.6 34c.1.2.1.3 0 .5V34z"/>
        <path fill="#A583B9" d="M47.5 31.8c-.6-5.9-3.7-10.2-8.9-13-.1-.1-.2-.1-.3-.1v13.5c0 .1.1.2.2.2 1.2.3 1.8 1.1 2.3 2.1.9 1.8 1.1 3.7.8 5.7-.2 1.5-.8 2.9-1.9 4.1h3.7c3.1-3.4 4.6-7.6 4.1-12.5zm-8-5c-.5-.3-.8-1.1-.5-1.7.2-.6.7-.9 1.2-.9.2 0 .4.1.6.2.1.1.4.2 0 .2-.1 0-.1.1-.1.1.1.2 0 .4-.2.5-.3.1-.3-.2-.5-.3-.3.4-.3.7 0 1.1.3.4.7.4 1.1.3-.3.7-1 .9-1.6.5z"/>
        <g fill="#2D89B9">
            <path d="M28.6 31.7c-.1-.2-.1-.3-.1-.5-.2-1.1-.9-1.6-1.9-1.3-.4.1-.5.1-.5-.3-.1-.9-.8-1.6-1.5-1.5-.8 0-1.4.7-1.5 1.7 0 .1 0 .2-.1.3-.7-.3-.9-.3-1.2.1-.4.5-.4.9.1 1.4-.6.1-1.2.1-1.7.3-.8.3-1.1 1.3-.7 2 .4.7 1.2.9 1.8.3l.3-.3c.3.9 1 1.2 1.9 1.2.9 0 1.5-.4 1.8-1.4.4.8.9 1.4 1.7 1.3.8 0 1.2-.7 1.7-1.3.6.8 1.1 1 1.8.6s1-1.3.6-1.9c-.5-.9-1.6-1.2-2.5-.7z"/>
            <path d="M36.6 43.8V18.7c0-.8 0-.8-.8-1-1.8-.5-3.7-.5-5.6-.5-.2 0-.3.1-.4.3v7.9c0 .8-.1.9-.9.9h-8.8c-.3 0-.4-.2-.3-.5 0-.1.1-.3.1-.4.7-2.1 1.7-4 3.1-5.7.2-.3.5-.6.7-.9.1-.1.1-.2 0-.3-.1-.1-.2-.1-.3-.1-.2 0-.3.1-.5.2-3.2 1.3-5.8 3.4-7.8 6.2-1.3 1.9-2.3 3.9-2.5 6.3 0 .4 0 .7-.1 1.1v.5c.1.2.1.3 0 .5v1c.1.2.1.3 0 .5v.4c.1.1 0 .2 0 .2.1.7.1 1.5.3 2.2.5 1.9 1.4 3.7 2.6 5.2.5.7 1 1.5 1.8 1.8h6.7c.1-.2-.1-.4-.2-.5-.8-.9-1.6-1.9-2.2-2.9-.8-1.2-1.3-2.6-1.8-3.9-.2-.5-.1-.7.5-.7h8.7c.6 0 .8.1.8.8v6.5c0 .3 0 .6.2.8h6.2c.6-.3.5-.6.5-.8zm-5.3-9.7c-.6.7-1.5.8-2.2.4-.3-.2-.4-.1-.6.1-1 1.1-2.1 1-3.2-.3-1.1 1.3-2.6 1.4-3.8.3-.1-.1-.2-.1-.4-.1-.4.2-.8.2-1.1.2-.6-.1-1.1-.6-1.2-1.2-.1-.9.2-1.6.9-2 .4-.2.8-.3 1.3-.3.2 0 .3 0 .2-.3-.2-.8.5-1.6 1.3-1.5.3 0 .3 0 .4-.3.2-.9.8-1.5 1.6-1.6.9-.1 1.5.4 1.9 1.4 0 .1.1.1.1.2 0 .3.2.4.5.3 1.1-.2 1.8.3 2.1 1.4.1.3.1.4.4.3.8-.1 1.5.1 2 .7.4.7.4 1.6-.2 2.3z"/>
        </g>
    </g>
</svg>
