<svg xmlns="http://www.w3.org/2000/svg" width="61" height="61" viewBox="0 0 61 61">
    <g fill="none" fill-rule="nonzero">
        <path fill="#0C1144" d="M50.8 60.4h-40c-5.5 0-10-4.5-10-10v-40c0-5.5 4.5-10 10-10h40c5.5 0 10 4.5 10 10v40c0 5.5-4.4 10-10 10z"/>
        <path fill="#2E30FE" d="M16.9 27.3c.1-.9.4-1.9.7-2.8 2-4.9 5.5-7.9 10.7-9 2.4-.5 4.8-.3 7.2.4h.1c.1.1 0 .2 0 .2-.6 1.7-1.2 3.4-1.7 5.1-.3 1-.7 2-1 3 0 .1 0 .2-.1.3h-.3c-2-.5-3.7 0-5.1 1.5-.6.7-1 1.4-1.2 2.3 0 .1 0 .2-.1.3-.2 0-.4 0-.6-.1-1.9-.3-3.9-.6-5.8-.9-.8-.1-1.6-.2-2.3-.4-.4.2-.5.2-.5.1z"/>
        <path fill="#00E2F8" d="M44.8 26.2c.3.9.4 1.9.4 2.9.1 4.4-1.5 8-4.7 11-1.8 1.7-3.9 2.8-6.3 3.3-.1-.1-.1-.2-.1-.2-.4-1.5-.7-3.1-1.1-4.6-.3-1.2-.6-2.5-.9-3.7 0-.1-.1-.2 0-.3.1-.1.2-.1.3-.1 1.4-.4 2.5-1.3 3.1-2.6.5-1 .7-2.1.4-3.2 0-.1-.1-.2 0-.3.3-.1.6-.2.9-.2 2.6-.6 5.1-1.2 7.7-1.8.1-.2.2-.2.3-.2z"/>
        <path fill="#00FE8C" d="M32.1 34.5l.9 3.9c.4 1.6.8 3.2 1.1 4.9v.1c-1.5.4-3 .4-4.5.3-2.3-.2-4.4-.9-6.3-2.1-.2-.1-.4-.2-.6-.4 0-.1 0-.1.1-.2.7-1.1 1.5-2.1 2.2-3.2.9-1.2 1.7-2.4 2.6-3.6.1-.1.2-.2.2-.3 0-.1.1-.1.2-.1.3.1.6.3.9.5.9.4 1.9.5 2.9.3.1-.1.2-.2.3-.1z"/>
        <path fill="#197BFE" d="M16.9 27.3c.6.1 1.2.2 1.9.3.8.1 1.6.3 2.4.4.9.1 1.7.3 2.6.4.7.1 1.4.2 2.2.3.1.1 0 .2 0 .3-.1 1.2.2 2.3.8 3.4 0 .1.1.1.1.2-.2.2-.4.3-.6.5-1.4 1-2.8 2-4.2 3.1L19.7 38c-.1 0-.1.1-.2.1-.6-.7-1-1.5-1.4-2.4-1-2.1-1.4-4.4-1.3-6.7-.1-.7-.1-1.2.1-1.7z"/>
        <path fill="#00E2CA" d="M39.1 17.8c.9.6 1.6 1.3 2.3 2 .9 1 1.6 2 2.2 3.2 0 .1.1.1.1.2-.1.1-.1.1-.2.1l-3.6 1.8c-1.4.7-2.8 1.3-4.1 2-.1 0-.1.1-.2.1s-.1-.1-.2-.1c-.3-.6-.8-1.2-1.4-1.6-.1 0-.1-.1-.1-.2.2-.4.5-.7.7-1 .9-1.3 1.8-2.6 2.8-3.9.5-.8 1.1-1.6 1.7-2.3-.1-.2-.1-.3 0-.3z"/>
        <path fill="#2E30FE" d="M19.4 37.9c1.1-.8 2.3-1.7 3.4-2.5 1.3-.9 2.6-1.9 3.9-2.8h.1c.1 0 .1 0 .1.1l.9.9.1.1c-.5.7-1 1.3-1.4 2-1.3 1.8-2.5 3.6-3.8 5.4-1.3-.9-2.4-1.9-3.3-3.2z"/>
        <path fill="#1582FE" d="M39.1 17.8l-3.6 5.1c-.5.7-1.1 1.5-1.6 2.2 0 0 0 .1-.1.1h-.2c-.3-.2-.7-.4-1-.5-.1 0-.1 0-.1-.1.3-1 .7-2.1 1-3.1.6-1.8 1.2-3.5 1.8-5.3 0-.1 0-.2.1-.3.9.3 1.7.7 2.5 1.1.5.3.8.5 1.2.8z"/>
        <path fill="#00FE8C" d="M35.5 27.2c1.4-.7 2.7-1.3 4.1-2 1.3-.6 2.6-1.3 3.8-1.9.1 0 .2-.1.3-.1.5.9.8 1.9 1.1 3 0 .1-.1.1-.1.1-1.9.4-3.7.9-5.6 1.3-1 .2-2 .5-3 .7H36s-.1 0-.1-.1l-.3-.9c-.1 0-.1-.1-.1-.1z"/>
        <path fill="#FFF" d="M18.9 47.7c-.2.5-.5 1-.7 1.5-.1.1-.1.3-.2.4 0 .1-.1.1-.2.1s-.1-.1-.2-.1c-.3-.6-.5-1.2-.8-1.8 0 0 0-.1-.1-.2V49.9c0 .1 0 .2-.2.2-.1 0-.1-.1-.1-.2V47c0-.1 0-.2.1-.2s.2 0 .3.1c.2.5.4 1 .7 1.4.1.3.2.5.4.8.3-.8.7-1.5 1-2.2 0-.1 0-.1.1-.2.1 0 .2 0 .2.2v2.9c0 .1 0 .2-.1.2-.2 0-.1-.1-.1-.2-.1-.6-.1-1.3-.1-2.1zM43.1 47.5V50c0 .1 0 .1-.1.1s-.1 0-.1-.1v-.7-2.1c0-.1-.1-.2.1-.2.1 0 .2 0 .3.1.4.7.8 1.4 1.3 2.1.1.1.2.3.2.4.1-.1 0-.1 0-.2v-2.3c0-.1 0-.2.1-.2.2 0 .1.1.1.2V50c0 .1.1.2-.1.2-.1 0-.2 0-.3-.1-.3-.6-.7-1.1-1-1.7-.1-.3-.3-.6-.5-.9zM37.3 48.6V50c0 .1 0 .2-.1.2s-.1-.1-.1-.2v-1.2c0-.1 0-.2-.2-.2h-1.4c-.1 0-.2.1-.1.2V50c0 .1 0 .2-.1.2s-.1-.1-.1-.2v-2.9c0-.1 0-.2.1-.2.2 0 .1.1.1.2v1.1c0 .1 0 .2.2.2h1.3c.1 0 .2-.1.2-.2v-1.1c0-.1 0-.2.1-.2s.1.1.1.2v1.5zM32.7 48.7V50c0 .1 0 .2-.2.2-.1 0-.1-.1-.1-.2v-2.6c0-.2 0-.2-.2-.2h-.7c-.1 0-.1 0-.1-.1s0-.1.1-.1h2c.1 0 .1 0 .1.1s-.1.1-.1.1h-.7c-.1 0-.2 0-.2.2.1.4.1.8.1 1.3zM26.7 49.9c-.2-.3-.3-.7-.5-1 0-.1-.1-.1 0-.2.4-.2.6-.6.5-1-.1-.4-.4-.7-.9-.7h-1.1c-.1 0-.2.1-.2.2v2.9c0 .1 0 .2.1.2.2 0 .1-.1.1-.2V49c0-.2.1-.2.2-.2h.5c.1 0 .2 0 .3.2.2.4.4.7.5 1.1.1.2.2.2.4.2.2-.3.2-.3.1-.4zm-.8-1.4h-.8c-.1 0-.1 0-.1-.1v-.5-.5c0-.1 0-.2.1-.2h.8c.4 0 .6.3.6.6 0 .4-.2.6-.6.7zM41.2 47.9c-.1-.7-.5-1.1-1.1-1.1-.6 0-1 .4-1.1 1-.1.5-.1.9 0 1.4.1.6.5 1 1 1 .7 0 1.1-.3 1.2-.9.1-.3 0-.5.1-.8-.1-.1-.1-.4-.1-.6zm-.3 1.4c-.1.4-.4.7-.8.7s-.7-.3-.8-.7v-.7-.7c.1-.4.4-.7.8-.7.5 0 .8.2.8.7.1.4.1.9 0 1.4zM23.2 50c-.3-1-.7-1.9-1-2.9 0-.1-.1-.2-.2-.2s-.2.1-.2.2c-.3 1-.7 1.9-1 2.9 0 .1-.1.2 0 .2s.2.1.3-.1c.1-.2.1-.4.2-.6 0-.1.1-.2.2-.1h1.1c.2 0 .2.1.3.2.1.2.1.4.2.5 0 .1.1.1.2.1-.1 0-.1-.1-.1-.2zm-1.7-.9c-.1 0-.1 0-.1-.1.2-.5.4-1 .6-1.6.2.6.4 1.1.6 1.7h-1.1zM30.6 50c-.3-1-.7-1.9-1-2.9 0-.1-.1-.2-.2-.2s-.2.1-.2.2c-.3 1-.7 1.9-1 2.9 0 .1-.1.2 0 .2s.2 0 .3-.1c.1-.2.1-.4.2-.6 0-.1.1-.1.2-.1H30c.1 0 .2 0 .2.1.1.2.1.4.2.6 0 .1.1.1.2.1s.1-.1 0-.2zm-1.8-1c.2-.6.4-1.1.6-1.7.2.6.4 1.1.6 1.7h-1.2z"/>
    </g>
</svg>
