<svg xmlns="http://www.w3.org/2000/svg" width="61" height="60" viewBox="0 0 61 60">
    <g fill="none" fill-rule="nonzero">
        <path fill="#0C1144" d="M50.8 60h-40c-5.5 0-10-4.5-10-10V10c0-5.5 4.5-10 10-10h40c5.5 0 10 4.5 10 10v40c0 5.6-4.4 10-10 10z"/>
        <g transform="translate(13 12)">
            <circle cx="17.8" cy="18" r="17.5" fill="#DA4E31"/>
            <g fill="#FFF">
                <path d="M12.1 19.8s-2.8-3.5-.8-7.5c1.9-4 1.3-5.4 1.2-5.9 0 0 1.8.8 2.1 4.7 0 0 1.2-1.6 1.2-4.2s1.6-4.3 1.8-4.3c0 0 .7 4.5 1.7 6.6 1 2.1.6 4.3.6 4.3s.2-7.1 2-8c0 0-.4 2.9 1.2 5s2 5.7 0 9.5l5.5-1.1-2.5 4.5H9.6l-2.5-4.1 5 .5zM9.6 24.9h16.5V28H9.6zM12.9 29.3v.4c0 2.1 2.2 3.7 5 3.7s5-1.7 5-3.7v-.4h-10z"/>
            </g>
        </g>
    </g>
</svg>
