<svg xmlns="http://www.w3.org/2000/svg" width="61" height="61" viewBox="0 0 61 61">
    <g fill="none" fill-rule="nonzero">
        <path fill="#0C1144" d="M50.4 60.2h-40c-5.5 0-10-4.5-10-10v-40c0-5.5 4.5-10 10-10h40c5.5 0 10 4.5 10 10v40c0 5.5-4.5 10-10 10z"/>
        <path fill="#E25A1C" d="M49 30.3c0-.1-.1-.1-.1-.2-.6-1.1-1.1-2.1-1.7-3.2-.1-.1-.1-.2 0-.3.9-1 1.8-2.1 2.7-3.2l.1-.1c-.3.1-.5.1-.8.2-1.1.3-2.2.6-3.2.9-.1 0-.1 0-.2-.1-.6-1-1.2-2.1-1.9-3.1 0-.1-.1-.1-.1-.1 0 .3-.1.5-.1.8-.2 1-.3 1.9-.5 2.9 0 .1 0 .2-.1.3 0 .1-.1.1-.2.2-1.3.4-2.6.8-3.8 1.2-.1 0-.1 0-.2.1 1 .4 2.1.8 3.1 1.3l-.1.1c-.7.4-1.3.8-2 1.3-.1.1-.1.1-.2 0-.8-.4-1.6-.7-2.3-1-.4-.2-.7-.4-.9-.7-.6-.7-.4-1.5.3-1.9.2-.2.5-.3.8-.4 1.3-.4 2.5-.8 3.8-1.2.1 0 .2-.1.2-.2.2-1 .3-1.9.5-2.9.1-.5.1-1 .4-1.5.1-.2.2-.4.4-.5.5-.6 1.2-.6 1.7 0 .2.2.3.4.5.6.6.9 1.2 1.9 1.7 2.9.1.1.1.1.3.1 1.4-.4 2.8-.7 4.2-1.1.3-.1.6-.1.9 0 .6.1.9.6.7 1.2-.1.3-.3.5-.5.8-1 1.1-2 2.3-2.9 3.4-.1.1-.1.2 0 .3.6 1.1 1.2 2.2 1.7 3.3.1.3.2.5.2.8 0 .7-.5 1.3-1.2 1.4-.4.1-.7 0-1.1-.1-.9-.3-1.8-.5-2.6-.8-.1 0-.1-.1-.1-.1-.1-.6-.2-1.2-.3-1.9v-.1c.9 0 1.9.3 2.9.6"/>
        <path fill="#FFF" d="M47.3 39.3h-2.4c-.1 0-.2 0-.2-.1-.9-1.4-1.9-2.9-2.8-4.3 0 0-.1-.1-.1-.2-.2 1.5-.4 3-.6 4.6h-2.1c0-.2 0-.4.1-.6.2-1.5.4-3.1.6-4.6.2-1.5.4-3 .6-4.4 0 0 0-.1.1-.1.7-.5 1.4-.9 2.1-1.4h.1c-.2 1.7-.4 3.3-.6 4.9 1.1-1.2 2.2-2.5 3.4-3.8 0 .2.1.4.1.5.1.5.2.9.2 1.4 0 .1 0 .2-.1.2-.7.8-1.4 1.5-2.2 2.3l-.1.1s0 .1.1.1c1.2 1.8 2.5 3.5 3.7 5.3.1 0 .1 0 .1.1M22.8 34.8c0-.2-.1-.4-.1-.6-.3-1.1-1.4-1.7-2.6-1.4-1.2.3-2.1 1.3-2.3 2.5-.1.9.4 1.8 1.4 2.2.8.3 1.5.2 2.2-.2.8-.6 1.3-1.4 1.4-2.5zm-5.5 3.9c-.1.5-.1.9-.2 1.3-.1.6-.2 1.2-.2 1.7 0 .1 0 .1-.1.1h-1.7-.1c0-.3.1-.5.1-.8.1-1 .3-1.9.4-2.9.1-1.1.3-2.2.4-3.3.3-1.9 2-3.6 3.9-4 1.1-.2 2.2-.1 3.1.5 1 .6 1.5 1.5 1.6 2.7.2 1.6-.4 2.9-1.6 4.1-.8.7-1.6 1.2-2.7 1.3-1.1.2-2.1 0-3-.6.2 0 .2 0 .1-.1zM16.4 29.6c-.6.5-1.3.9-1.9 1.4-.1-.2-.2-.3-.3-.5-.3-.4-.6-.7-1.1-.7-.4 0-.7.1-1 .4-.2.3-.3.6 0 .9.3.3.5.6.8.9.5.5 1 1 1.4 1.5.4.5.8 1 .9 1.6.1.8 0 1.5-.4 2.1-.7 1.2-1.7 1.9-3.1 2.2-.6.1-1.2.1-1.8-.1-.8-.2-1.3-.7-1.7-1.5-.1-.3-.2-.5-.3-.8.7-.4 1.4-.7 2-1.1 0 .1 0 .1.1.1.1.2.2.5.4.7.4.6 1.1.8 1.8.5.2-.1.4-.2.5-.3.4-.4.5-1 .2-1.4-.2-.3-.4-.5-.7-.8-.6-.6-1.1-1.2-1.7-1.8-.4-.4-.6-.9-.7-1.5-.1-.6 0-1.2.4-1.8.8-1.3 2-2 3.6-2 .9 0 1.6.5 2.2 1.1 0 .4.2.7.4.9M31.5 36.7c-.1.8-.2 1.6-.3 2.3 0 0 0 .1-.1.1-1.5.7-3.6.6-4.8-.8-.7-.8-1-1.7-.9-2.7.1-2.4 2.1-4.4 4.4-4.7 1.4-.2 2.6.2 3.5 1.3.6.7.9 1.6.9 2.5 0 .6-.1 1.3-.2 1.9-.1.9-.2 1.8-.4 2.7v.1h-1.8c0-.2 0-.4.1-.6.1-1 .3-2.1.4-3.1.1-.6 0-1.3-.3-1.9-.3-.6-.8-1-1.5-1-1.4-.2-2.8.8-3.1 2.2-.2.9.1 1.8.9 2.3.7.5 1.5.5 2.3.2.3-.3.6-.5.9-.8M39.3 31c-.1.6-.2 1.3-.3 1.9h-1.2c-.3 0-.6.2-.7.5 0 .1 0 .2-.1.4-.2 1.5-.4 2.9-.6 4.4 0 .4-.1.7-.1 1.1h-1.9c0-.3.1-.6.1-.8.1-1 .3-1.9.4-2.9.1-.8.2-1.7.3-2.5.2-1.1 1.3-2.1 2.4-2.1h1.7M49.6 39.3v-.8l-.3.8h-.1l-.3-.8v.8h-.2v-1h.2l.3.7.3-.7h.2v1h-.1zm-1.4-.8v.8H48v-.8h-.3v-.1h.8v.1h-.3zM18.9 28.2h.5l-.1-.7-.4.7zm.6.5h-.8l-.3.5h-.6l1.2-2.3h.5l.4 2.3h-.5l.1-.5zM22.3 27.3H22l-.1.5h.3c.2 0 .3-.1.3-.3 0-.1 0-.2-.2-.2zm-.7-.4h.7c.4 0 .7.2.7.6 0 .5-.4.8-.9.8h-.3l-.1.8h-.5l.4-2.2zM24.7 28.2h.5l-.1-.7-.4.7zm.5.5h-.8l-.3.5h-.6l1.2-2.3h.5l.4 2.3h-.5l.1-.5zM28.4 29.1c-.2.1-.3.1-.5.1-.6 0-1-.5-1-1 0-.7.6-1.4 1.4-1.4.2 0 .4 0 .5.1l-.1.6c-.1-.1-.3-.2-.5-.2-.4 0-.8.4-.8.8 0 .3.2.6.5.6.2 0 .4-.1.5-.2v.6M31.3 28.2h-1l-.2.9h-.5l.4-2.3h.5l-.2.9h1l.2-.9h.5l-.4 2.3h-.5l.2-.9M33.1 29.2l.4-2.3h1.3l-.1.5h-.8l-.1.4h.7l-.1.5h-.7l-.1.5h.8l-.1.5h-1.2"/>
    </g>
</svg>
