<svg xmlns="http://www.w3.org/2000/svg" width="61" height="61" viewBox="0 0 61 61">
    <g fill="none" fill-rule="nonzero">
        <path fill="#0C1144" d="M50.6 60.2h-40c-5.5 0-10-4.5-10-10v-40c0-5.5 4.5-10 10-10h40c5.5 0 10 4.5 10 10v40c0 5.5-4.4 10-10 10z"/>
        <path fill="#EDA923" d="M34.8 31.3c0 2.3-1.9 4.2-4.2 4.2-2.3 0-4.2-1.9-4.2-4.2 0-2.3 1.9-4.2 4.2-4.2 2.4 0 4.2 1.9 4.2 4.2z"/>
        <path fill="#FFF" d="M30.7 35.7c-2.4 0-4.4-2-4.4-4.4 0-2.4 2-4.4 4.4-4.4 2.4 0 4.4 2 4.4 4.4 0 2.4-2 4.4-4.4 4.4zm0-8.3c-2.1 0-3.9 1.7-3.9 3.9s1.7 3.9 3.9 3.9c2.1 0 3.9-1.7 3.9-3.9s-1.8-3.9-3.9-3.9z"/>
        <path fill="#EDA923" d="M43.8 31.2c0 2.3-1.9 4.2-4.2 4.2-2.3 0-4.2-1.9-4.2-4.2 0-2.3 1.9-4.2 4.2-4.2 2.4.1 4.2 1.9 4.2 4.2z"/>
        <path fill="#FFF" d="M39.7 35.6c-2.4 0-4.4-2-4.4-4.4 0-2.4 2-4.4 4.4-4.4 2.4 0 4.4 2 4.4 4.4 0 2.5-2 4.4-4.4 4.4zm0-8.3c-2.1 0-3.9 1.7-3.9 3.9 0 2.1 1.7 3.9 3.9 3.9s3.9-1.7 3.9-3.9c0-2.1-1.8-3.9-3.9-3.9z"/>
        <path fill="#EDA923" d="M25.8 31.3l-.3-.3-3.8-3.8c-2.3 0-4.2 1.9-4.2 4.2 0 2.3 1.9 4.2 4.2 4.2v2.3c0 .3.2.5.5.5h3.2c.3 0 .5-.2.5-.5v-6c-.1-.4-.1-.6-.1-.6z"/>
        <path fill="#FFF" d="M25.3 38.5h-3.2c-.4 0-.7-.3-.7-.7V36v-.2c-2.3-.1-4.2-2.1-4.2-4.4 0-2.4 2-4.4 4.4-4.4h.1l3.9 3.9.3.3c.1 0 .1.1.1.2v6.4c0 .3-.3.7-.7.7zm-3.6-3.3c.2.2.2.2.2.7v1.8c0 .1.1.2.2.2h3.2c.1 0 .2-.1.2-.2v-6-.4l-.2-.2-3.7-3.7c-2.1.1-3.8 1.8-3.8 3.9 0 2.1 1.7 3.9 3.9 3.9z"/>
        <path fill="#EDA923" d="M15.7 28.5H14l.8-.8c-.6-.4-1.4-.6-2.2-.6-2.3 0-4.2 1.9-4.2 4.2 0 1.3.6 2.4 1.5 3.2h1.3l-.5.5c.6.3 1.2.5 1.9.5 2.3 0 4.2-1.9 4.2-4.2-.1-1.1-.5-2.1-1.1-2.8z"/>
        <path fill="#FFF" d="M12.6 35.6c-.7 0-1.4-.2-2.1-.5l-.3-.2.3-.3h-.7l-.1-.1c-1-.8-1.6-2.1-1.6-3.4 0-2.4 2-4.4 4.4-4.4.8 0 1.6.2 2.3.6l.3.2-.6.6h1.2l.1.1c.7.8 1.1 1.9 1.1 2.9.1 2.6-1.9 4.5-4.3 4.5zm-1.5-.8c.5.2 1 .3 1.5.3 2.1 0 3.9-1.7 3.9-3.9 0-.9-.3-1.8-.9-2.5h-2.2l1-1c-.5-.3-1.1-.4-1.7-.4-2.1 0-3.9 1.7-3.9 3.9 0 1.1.5 2.2 1.3 2.9h1.8l-.8.7z"/>
        <path fill="#EDA923" d="M44.6 31.6l.3-.3 3.8-3.8c2.3 0 4.2 1.9 4.2 4.2 0 2.3-1.9 4.2-4.2 4.2v2.3c0 .3-.2.5-.5.5H45c-.3 0-.5-.2-.5-.5v-6c.1-.4.1-.6.1-.6z"/>
        <path fill="#FFF" d="M48.2 38.8H45c-.4 0-.7-.3-.7-.7v-6-.4c0-.1 0-.2.1-.2l.3-.3 3.9-3.9h.1c2.4 0 4.4 2 4.4 4.4 0 2.4-1.9 4.3-4.2 4.4v2c.1.3-.3.7-.7.7zm-3.4-7.1v6.4c0 .1.1.2.2.2h3.2c.1 0 .2-.1.2-.2v-1.8c0-.5 0-.6.1-.7l.1-.1h.1c2.1 0 3.9-1.7 3.9-3.9 0-2.1-1.7-3.8-3.8-3.9l-4 4c.1-.1 0 0 0 0z"/>
    </g>
</svg>
