<svg xmlns="http://www.w3.org/2000/svg" width="61" height="61" viewBox="0 0 61 61">
    <g fill="none" fill-rule="nonzero">
        <path fill="#0C1144" d="M50.1 60.4h-40c-5.5 0-10-4.5-10-10v-40c0-5.5 4.5-10 10-10h40c5.5 0 10 4.5 10 10v40c0 5.5-4.5 10-10 10z"/>
        <path fill="#3071A9" d="M39.468 18.374c-3.696 0-7.87 1.192-10.135 2.504-.834.477-1.669 1.073-2.504 1.669 0 0-7.75 5.961-10.134 8.942-.358.358-.596.835-.834 1.312v.119s0 .12-.12.12c-.357.834-.715 1.668-.834 2.503v.12c-.12.953-.12 2.026.357 2.98.477 1.073 1.312 1.907 2.504 2.504 1.192.596 3.22 1.192 3.22 1.192 1.788.357 3.576.238 5.245 0 .835-.12 1.67-.12 2.623-.239 0-.238-.119-.834 0-.834 1.193-.358 1.908-.477 2.862-.835.834-.358 1.55-.596 2.265-.954.12-.119.358-.238.477-.357a4.943 4.943 0 0 1 1.908-.358c.477-.12 1.073-.12 1.55-.12h.953c.239 0 .477.12.716.24l.357.357c0 .12.12.238.12.358 1.907-.716 3.815-1.55 5.246-2.862 2.146-2.027 3.815-4.65 4.65-7.511.476-1.55.476-3.22.119-4.77-.239-.953-.716-1.55-1.55-2.503-1.908-1.908-4.65-3.1-7.273-3.338-.835-.239-1.312-.239-1.788-.239zm-12.639 4.173c-.357.239-.715.596-1.192.835l1.192-.835zm7.989 1.788c1.192 0 1.907.239 1.907.239s-2.027.238-3.1.358c-.834.119-2.265.477-3.338.834-2.146.716-4.173 1.789-6.2 2.742-1.55.835-2.98 1.67-4.53 2.623-.954.597-2.981 1.908-2.981 1.908s1.67-2.146 6.2-4.65c1.311-.715 2.623-1.43 3.934-2.027 1.073-.477 2.146-.953 3.22-1.192.834-.238 1.669-.477 2.503-.596.596-.12 1.312-.12 1.908-.239h.477zm-15.261 2.147c-.358 0-.716.476-.954.834-.239.477-.358 1.192-.477 1.789.834-.716 1.669-1.431 2.265-1.908-.238-.358-.477-.715-.834-.715zm17.168 1.907s-3.696 1.43-5.603 2.146c-2.146.835-4.293 1.67-6.32 2.623-1.43.596-2.98 1.312-4.41 1.908a331.01 331.01 0 0 0-4.055 1.908s2.266-1.908 6.439-3.696c2.504-1.074 4.053-2.027 6.796-2.862 1.192-.358 2.503-.835 3.696-1.192 1.192-.358 3.457-.835 3.457-.835zm1.312 3.815s-.477.597-1.67 1.431c-.595.358-1.072.835-1.669 1.192-.715.477-1.55.835-2.265 1.312-.954.477-2.027.835-2.98 1.311-.954.358-2.027.716-2.981 1.074-1.192.357-2.504.715-3.815 1.073-.954.238-2.862.476-2.862.476s2.385-.834 3.458-1.192c1.192-.477 2.384-.834 3.696-1.311 1.311-.477 2.265-.835 3.338-1.312a27.275 27.275 0 0 0 2.742-1.192c.716-.358 1.312-.715 2.027-1.073 1.073-.715 2.98-1.789 2.98-1.789zm2.742 2.385s0 .358-1.073 1.43c-.358.358-1.073.955-1.55 1.193-1.67 1.073-2.623 1.312-2.623 1.312s1.67-1.074 2.504-1.67l1.43-1.073c.477-.357 1.312-1.192 1.312-1.192zm-26.468 3.696c-.597.239-1.312.596-1.789.835-.834.477-2.504 1.192-2.504 1.55.12.357 2.027-.358 2.981-.597.596-.119 1.192-.238 1.908-.357-.239-.477-.477-.954-.596-1.43zm23.13.596h-.835c-.954.12-1.311.239-2.027.477l-.715.358c-.358.238-.835.477-1.192.715-.597.239-1.193.477-1.908.596-.477.12-.596.239-1.55.477-.12 0 0 .358.12.477 2.265 0 9.299.12 9.418-.238l.477-2.146h.12c0-.12 0-.12-.12-.239L38.871 39c-.238-.119-.596-.119-.834-.119-.12.12-.358 0-.596 0zm1.192.596c.238 0 .477 0 .477.239 0 .238-.596.238-.954.357-1.908.239-2.504.12-3.815.12h-.716s1.193-.239 2.266-.477c.596-.12 1.192-.12 1.907-.12.239 0 .597-.119.835-.119zm-1.43 1.193h.715c.119 0 .357 0 .477.119.119 0 .119.12.119.238 0 .12-.239.12-.596.12-.477 0-.954.119-1.431.119H32.91s.715-.239 1.073-.239l2.504-.357h.715z"/>
    </g>
</svg>
